# xmcd CD database file
#
# Track frame offsets:
#	150
#	14220
#	34664
#	47194
#	64059
#	80475
#	96338
#	115381
#	132836
#	148216
#	165607
#	183451
#
# Disc length: 2587 seconds
#
# Revision: 0
# Processed by: cddbd v1.5.1PL0 Copyright (c) Steve Scherf et al.
# Submitted via: CDex 1.40Release
#
DISCID=b00a190c
DTITLE=Joe Diffie - Greatest Hits
DYEAR=1900
DGENRE=Country
TTITLE0=Third Rock From the Sun
TTITLE1=John Deere Green
TTITLE2=Texas Size Heartache
TTITLE3=Ships That Don't Come In
TTITLE4=Pickup Man
TTITLE5=So Help Me Girl
TTITLE6=Poor Me
TTITLE7=Honky Tonk Attitude
TTITLE8=Home
TTITLE9=Prop Me Up Beside The Jukebox (If I Die)
TTITLE10=Bigger Than The Beatles
TTITLE11=Hurt Me All The Time
EXTD=ID3G: 2
EXTT0=
EXTT1=
EXTT2=
EXTT3=
EXTT4=
EXTT5=
EXTT6=
EXTT7=
EXTT8=
EXTT9=
EXTT10=
EXTT11=
PLAYORDER=
